<?xml version="1.0" encoding="UTF-8"?>
<svg xmlns="http://www.w3.org/2000/svg" xmlns:xlink="http://www.w3.org/1999/xlink" width="351.94pt" height="580.95pt" viewBox="0 0 351.94 580.95" version="1.1">
<defs>
<clipPath id="clip1">
  <path d="M 0 71 L 351.941406 71 L 351.941406 580.949219 L 0 580.949219 Z M 0 71 "/>
</clipPath>
<clipPath id="clip2">
  <path d="M 0 183 L 351.941406 183 L 351.941406 566 L 0 566 Z M 0 183 "/>
</clipPath>
</defs>
<g id="surface1">
<g clip-path="url(#clip1)" clip-rule="nonzero">
<path style=" stroke:none;fill-rule:evenodd;fill:rgb(45.498657%,7.798767%,7.099915%);fill-opacity:1;" d="M 0.488281 97.304688 L 0.00390625 422.183594 C 0.00390625 422.183594 -2.515625 555.683594 124.992188 576.363281 C 295.03125 604.621094 333.53125 493.027344 333.53125 493.027344 C 333.53125 493.027344 352 449.230469 350.808594 412.730469 C 352.597656 371.976563 351.734375 117.871094 351.734375 117.871094 C 351.734375 117.871094 321.449219 148.519531 265.976563 131.714844 C 224.5625 115.453125 214.269531 106.6875 191.683594 96.476563 C 128.304688 65.472656 72.550781 61.144531 0.488281 97.304688 "/>
</g>
<g clip-path="url(#clip2)" clip-rule="nonzero">
<path style=" stroke:none;fill-rule:evenodd;fill:rgb(41.19873%,61.999512%,76.899719%);fill-opacity:1;" d="M 351.300781 260.660156 C 325.890625 278.585938 291.683594 285.511719 251.914063 285.511719 C 245.695313 285.511719 239.871094 285.125 234.445313 284.476563 C 245.695313 290.945313 251.847656 298.648438 255.6875 312.433594 C 247.746094 308.808594 239.9375 306.867188 234.710938 306.867188 C 223.328125 306.800781 212.609375 314.570313 213.070313 326.347656 C 213.402344 333.917969 219.097656 340.648438 227.5625 344.078125 C 246.820313 351.78125 266.472656 357.539063 284.339844 368.347656 C 319.871094 390.027344 327.085938 416.757813 327.085938 439.148438 C 327.085938 468.269531 313.71875 503.796875 283.414063 529.6875 C 259.0625 550.460938 223.792969 565.023438 175.6875 565.023438 C 123.277344 565.023438 82.785156 544.699219 55.589844 515.253906 C 29.253906 486.714844 15.488281 449.566406 15.488281 414.164063 C 15.488281 364.402344 40.300781 322.140625 77.359375 295.023438 C 104.554688 275.15625 141.871094 263.25 173.769531 263.570313 C 154.511719 254.445313 134.066406 245.90625 101.972656 245.90625 C 66.507813 245.90625 29.582031 260.144531 0.0703125 294.894531 L 0.0703125 208.820313 C 25.28125 194.003906 62.601563 183.453125 98.863281 183.453125 C 147.761719 183.453125 173.4375 201.964844 196.796875 220.535156 C 220.285156 239.042969 241.527344 257.617188 281.558594 257.617188 C 306.769531 257.617188 331.054688 246.941406 351.300781 233.414063 Z M 187.597656 287.128906 C 140.285156 297.03125 91.652344 341.101563 91.652344 390.867188 C 91.652344 446.460938 143.792969 479.917969 187.199219 479.917969 C 221.742188 479.917969 256.085938 465.160156 256.148438 426.59375 C 256.148438 396.496094 234.910156 385.238281 209.101563 375.726563 C 186.40625 367.3125 169.929688 346.085938 169.730469 321.6875 C 169.667969 308.613281 175.6875 295.089844 187.597656 287.128906 "/>
</g>
<path style=" stroke:none;fill-rule:evenodd;fill:rgb(100%,100%,100%);fill-opacity:1;" d="M 186.609375 525.230469 C 185.664063 525.230469 184.898438 526.945313 184.898438 529.054688 C 184.898438 531.167969 185.664063 532.882813 186.609375 532.882813 C 187.558594 532.882813 188.324219 531.167969 188.324219 529.054688 C 188.324219 526.945313 187.558594 525.230469 186.609375 525.230469 M 184.675781 509.480469 L 194 509.589844 L 188.523438 519.136719 C 197.199219 517.417969 203.070313 538.753906 187.339844 539.519531 C 176.351563 539.46875 176.5625 526.652344 178.753906 522.019531 L 184.675781 509.480469 "/>
<path style=" stroke:none;fill-rule:evenodd;fill:rgb(100%,100%,100%);fill-opacity:1;" d="M 153.050781 509.730469 L 152.894531 538.378906 L 145.136719 538.257813 L 145.15625 516.046875 L 141.914063 516.011719 L 141.910156 509.757813 L 153.050781 509.730469 "/>
<path style=" stroke:none;fill-rule:evenodd;fill:rgb(100%,100%,100%);fill-opacity:1;" d="M 198.074219 509.742188 L 197.957031 516.601563 L 206.804688 516.429688 L 196.855469 538.1875 L 205.921875 538.425781 L 217.121094 509.667969 L 198.074219 509.742188 "/>
<path style=" stroke:none;fill-rule:evenodd;fill:rgb(100%,100%,100%);fill-opacity:1;" d="M 166.429688 515.355469 C 167.378906 515.355469 168.144531 517.066406 168.144531 519.179688 C 168.144531 521.292969 167.378906 523.003906 166.429688 523.003906 C 165.484375 523.003906 164.71875 521.292969 164.71875 519.179688 C 164.71875 517.066406 165.484375 515.355469 166.429688 515.355469 M 166.21875 528.746094 L 160.253906 538.21875 L 168.898438 538.292969 L 175.777344 524.324219 C 180.945313 505.449219 152.679688 503.375 157.566406 523.464844 C 158.550781 527.078125 161.011719 528.886719 166.21875 528.746094 "/>
<path style=" stroke:none;fill-rule:nonzero;fill:rgb(100%,100%,100%);fill-opacity:1;" d="M 145.9375 163.210938 C 144.046875 158.777344 143.042969 154.546875 142.882813 149.523438 C 148.015625 143.09375 153.472656 138.339844 158.925781 134.882813 C 169.460938 128.289063 180.046875 126.671875 188.527344 127.589844 C 188.90625 130.183594 188.882813 132.09375 188.773438 134.417969 C 188.667969 136.738281 188.34375 138.953125 187.855469 141.058594 C 180.941406 140.628906 173.164063 141.382813 165.222656 145.488281 C 158.738281 148.785156 152.203125 154.292969 145.9375 163.210938 "/>
<path style=" stroke:none;fill-rule:nonzero;fill:rgb(100%,100%,100%);fill-opacity:1;" d="M 196.664063 184.328125 C 191.964844 186.382813 187.316406 186.976563 181.914063 186.976563 C 167.277344 186.976563 154.417969 178.820313 147.722656 166.828125 C 151.015625 161.859375 153.339844 158.941406 156.742188 155.917969 C 160.578125 164.128906 167.707031 172.71875 179.050781 178.714844 C 183.914063 181.304688 190.128906 182.925781 196.664063 184.328125 "/>
<path style=" stroke:none;fill-rule:nonzero;fill:rgb(100%,100%,100%);fill-opacity:1;" d="M 211.671875 171.839844 C 208.703125 175.785156 206.492188 178.601563 202.332031 181.199219 C 194.230469 179.953125 187.367188 177.632813 181.753906 174.605469 C 170.785156 168.828125 164.035156 160.453125 160.628906 152.566406 C 162.683594 151 164.738281 149.703125 166.84375 148.621094 C 168.894531 147.542969 169.535156 147.210938 171.589844 146.558594 C 174.722656 152.773438 179.261719 159.148438 186.714844 164.007813 C 192.820313 167.953125 200.867188 170.867188 211.671875 171.839844 "/>
<path style=" stroke:none;fill-rule:nonzero;fill:rgb(100%,100%,100%);fill-opacity:1;" d="M 205.964844 116.761719 C 215.417969 123.945313 221.023438 135.117188 221.023438 147.867188 C 221.023438 155.210938 218.972656 162.128906 215.40625 168.015625 C 209.464844 167.636719 205.734375 167.070313 201.359375 165.664063 C 206.601563 158.214844 210.4375 147.734375 209.949219 134.929688 C 209.785156 129.363281 208.019531 123.136719 205.964844 116.761719 "/>
<path style=" stroke:none;fill-rule:nonzero;fill:rgb(100%,100%,100%);fill-opacity:1;" d="M 187.894531 109.140625 C 192.863281 109.738281 196.285156 111.1875 200.550781 113.453125 C 203.523438 121.128906 204.929688 128.203125 205.140625 134.632813 C 205.628906 147.054688 201.738281 157.050781 196.660156 163.964844 C 194.230469 162.992188 192.070313 161.859375 190.125 160.5625 C 188.128906 159.316406 188.113281 158.480469 186.550781 157.019531 C 190.382813 151.1875 193.132813 143.605469 193.621094 134.691406 C 193.941406 127.402344 192.484375 118.972656 187.894531 109.140625 "/>
<path style=" stroke:none;fill-rule:nonzero;fill:rgb(100%,100%,100%);fill-opacity:1;" d="M 181.914063 108.757813 L 182.5625 108.757813 C 185.210938 114.050781 186.707031 118.175781 187.679688 122.660156 C 178.65625 121.851563 167.691406 123.738281 156.78125 130.546875 C 152.078125 133.519531 147.433594 137.410156 142.898438 142.378906 C 145.273438 123.039063 161.980469 108.757813 181.914063 108.757813 "/>
<path style=" stroke:none;fill-rule:evenodd;fill:rgb(81.175232%,63.136292%,32.548523%);fill-opacity:1;" d="M 181.636719 -0.00390625 L 173.222656 25.789063 L 146.023438 25.789063 L 168.175781 43.175781 L 159.542969 68.941406 L 182.757813 52.425781 L 204.480469 68.519531 L 196.496094 43.175781 L 217.808594 25.789063 L 191.167969 24.949219 L 181.636719 -0.00390625 "/>
</g>
</svg>
